<svg xmlns="http://www.w3.org/2000/svg" xmlns:xlink="http://www.w3.org/1999/xlink" width="16" height="16" viewBox="0 0 16 16">
  <defs>
    <style>
      .cls-1 {
        fill-rule: evenodd;
        filter: url(#filter);
      }
    </style>
    <filter id="filter" x="1343" y="2482" width="16" height="16" filterUnits="userSpaceOnUse">
      <feFlood result="flood" flood-color="#999"/>
      <feComposite result="composite" operator="in" in2="SourceGraphic"/>
      <feBlend result="blend" in2="SourceGraphic"/>
    </filter>
  </defs>
  <path id="clock" class="cls-1" d="M1351,2481.99a8,8,0,1,1-8,8A8,8,0,0,1,1351,2481.99Zm-0.06,1.56a6.46,6.46,0,1,1-6.47,6.46A6.464,6.464,0,0,1,1350.94,2483.55Zm1.86,8.05h-2.44a0.612,0.612,0,0,1-.61-0.61v-3.71a0.61,0.61,0,1,1,1.22,0v3.1h1.83a0.606,0.606,0,0,1,.61.61A0.612,0.612,0,0,1,1352.8,2491.6Z" transform="translate(-1343 -2482)"/>
</svg>
